<?xml version="1.0" standalone="no"?>
<!DOCTYPE svg PUBLIC "-//W3C//DTD SVG 20010904//EN"
 "http://www.w3.org/TR/2001/REC-SVG-20010904/DTD/svg10.dtd">
<svg version="1.0" xmlns="http://www.w3.org/2000/svg"
 width="658.000000pt" height="395.000000pt" viewBox="0 0 658.000000 395.000000"
 preserveAspectRatio="xMidYMid meet">

<g transform="translate(0.000000,395.000000) scale(0.100000,-0.100000)"
fill="#000000" stroke="none">
<path d="M3412 2999 c-39 -20 -112 -92 -112 -111 0 -4 -7 -8 -16 -8 -9 0 -18
-9 -21 -19 -4 -18 -12 -19 -72 -14 -59 5 -79 1 -171 -30 -58 -20 -134 -43
-169 -52 -81 -21 -140 -61 -179 -122 -74 -116 -80 -270 -18 -452 59 -171 48
-288 -44 -470 -78 -157 -77 -193 9 -284 l50 -52 -227 -282 c-125 -155 -229
-283 -232 -283 -3 0 -34 38 -70 85 -36 47 -70 85 -76 85 -6 0 -17 7 -24 15
-16 19 -38 3 -24 -17 5 -7 9 -25 8 -41 0 -15 1 -25 4 -22 7 6 32 -15 32 -27 0
-5 -5 -6 -12 -2 -7 4 -8 3 -4 -5 4 -6 11 -9 16 -6 4 3 22 -12 39 -34 32 -40
39 -57 19 -45 -7 4 -8 3 -4 -5 4 -6 11 -9 16 -6 5 3 11 1 14 -4 3 -5 -23 -32
-59 -61 -116 -92 -154 -157 -155 -266 0 -47 5 -69 23 -95 42 -62 70 -66 222
-33 56 12 57 12 20 13 -43 1 -151 47 -174 74 -10 13 -12 33 -6 84 9 81 31 128
89 188 72 75 106 63 236 -90 94 -109 130 -162 123 -181 -3 -8 -17 -21 -32 -29
-24 -13 -24 -14 -4 -15 12 0 23 6 26 13 3 9 10 7 23 -6 19 -18 19 -18 -1 -11
-12 5 -7 -4 14 -21 19 -16 42 -43 52 -60 11 -16 19 -25 19 -19 0 13 -37 63
-60 81 -10 9 -11 12 -2 13 17 0 15 35 -4 76 -16 34 -16 36 8 62 25 27 239 274
245 281 1 2 21 -17 44 -43 51 -57 78 -72 150 -79 32 -3 99 -23 155 -46 58 -24
130 -46 174 -52 67 -10 89 -9 205 14 72 14 150 29 175 32 25 4 137 27 250 52
240 52 303 54 394 9 109 -53 147 -137 127 -281 -14 -101 -15 -98 18 -81 32 17
65 79 74 142 20 128 -103 556 -273 955 -63 146 -115 233 -171 284 -43 38 -131
85 -161 85 -11 0 -20 10 -24 28 -28 130 -84 234 -175 329 -32 33 -59 65 -60
70 0 4 -2 23 -5 42 -2 18 3 56 11 84 20 66 19 103 -4 152 -27 60 -106 152
-173 201 -67 49 -66 50 51 57 59 3 67 6 97 40 28 31 34 44 34 83 0 121 -131
191 -248 133z m-533 -413 c12 -13 28 -47 36 -77 27 -101 85 -123 175 -65 63
42 108 46 157 16 46 -27 56 -53 49 -119 -9 -82 1 -117 48 -162 l41 -39 1 -100
c1 -85 5 -107 27 -152 15 -30 39 -63 55 -75 39 -28 104 -45 161 -41 l46 3 -3
-49 c-4 -81 -51 -153 -126 -194 -43 -23 -160 -23 -203 1 -58 31 -99 84 -133
172 l-33 85 -41 0 c-57 0 -134 39 -180 90 -21 24 -56 80 -77 124 -43 92 -123
329 -134 394 -10 60 2 142 25 180 25 41 75 45 109 8z m-431 -1942 c27 -19 29
-60 4 -92 l-18 -23 -47 60 c-26 34 -47 63 -47 66 0 12 88 3 108 -11z"/>
<path d="M3110 2433 c-19 -7 -50 -34 -50 -43 0 -6 118 19 130 28 2 2 -2 7 -10
12 -16 11 -46 12 -70 3z"/>
<path d="M3119 2381 c-30 -24 -19 -39 13 -17 12 9 33 16 45 16 13 0 23 5 23
10 0 17 -57 11 -81 -9z"/>
<path d="M2813 2375 c-21 -15 -34 -51 -15 -43 4 2 24 10 45 18 20 8 36 19 34
25 -6 17 -40 17 -64 0z"/>
<path d="M3008 2324 c-5 -4 -8 -56 -8 -114 0 -120 8 -138 54 -120 34 13 33 18
-4 12 l-29 -4 -3 117 c-2 64 -6 113 -10 109z"/>
<path d="M3114 2315 c-4 -9 -2 -21 4 -27 16 -16 47 -5 47 17 0 26 -42 34 -51
10z"/>
<path d="M2852 2284 c-32 -22 -27 -37 8 -19 16 8 38 15 50 15 12 0 18 5 15 10
-9 15 -48 12 -73 -6z"/>
<path d="M2863 2243 c-18 -7 -16 -42 3 -50 8 -3 23 1 31 10 13 13 14 19 3 31
-13 17 -17 18 -37 9z"/>
<path d="M3170 2091 c0 -11 -14 -36 -31 -56 l-31 -35 27 10 c16 6 34 18 41 28
16 20 18 58 4 67 -5 3 -10 -3 -10 -14z"/>
<path d="M3675 2190 c17 -23 75 -76 75 -68 0 2 -21 24 -47 48 -25 25 -38 34
-28 20z"/>
<path d="M3790 2096 c0 -2 17 -15 38 -27 20 -13 58 -42 83 -64 38 -33 37 -32
-6 10 -47 45 -115 93 -115 81z"/>
<path d="M2637 423 c18 -2 50 -2 70 0 21 2 7 4 -32 4 -38 0 -55 -2 -38 -4z"/>
<path d="M2533 413 c9 -2 23 -2 30 0 6 3 -1 5 -18 5 -16 0 -22 -2 -12 -5z"/>
<path d="M2770 413 c8 -3 24 -10 35 -15 20 -9 20 -9 1 6 -11 9 -27 16 -35 15
-14 0 -14 -1 -1 -6z"/>
<path d="M2846 357 c3 -10 9 -15 12 -12 3 3 0 11 -7 18 -10 9 -11 8 -5 -6z"/>
<path d="M2251 336 c2 -2 15 -9 29 -15 24 -11 24 -11 6 3 -16 13 -49 24 -35
12z"/>
<path d="M2431 300 c29 -45 29 -45 29 -34 0 5 -12 23 -26 39 l-26 30 23 -35z"/>
<path d="M1955 300 c-27 -7 -27 -8 -5 -8 14 0 36 4 50 8 20 6 21 8 5 8 -11 0
-33 -4 -50 -8z"/>
<path d="M2170 306 c0 -2 7 -7 16 -10 8 -3 12 -2 9 4 -6 10 -25 14 -25 6z"/>
<path d="M2330 283 c13 -18 25 -33 27 -33 8 0 -17 38 -33 51 -11 9 -9 2 6 -18z"/>
<path d="M2850 300 c-8 -5 -10 -10 -5 -10 6 0 17 5 25 10 8 5 11 10 5 10 -5 0
-17 -5 -25 -10z"/>
<path d="M3625 290 c-7 -12 2 -12 30 0 19 8 19 9 -2 9 -12 1 -25 -3 -28 -9z"/>
<path d="M1898 283 c7 -3 16 -2 19 1 4 3 -2 6 -13 5 -11 0 -14 -3 -6 -6z"/>
<path d="M2230 265 c13 -14 26 -25 28 -25 3 0 -5 11 -18 25 -13 14 -26 25 -28
25 -3 0 5 -11 18 -25z"/>
<path d="M1848 273 c7 -3 16 -2 19 1 4 3 -2 6 -13 5 -11 0 -14 -3 -6 -6z"/>
<path d="M2778 273 c7 -3 16 -2 19 1 4 3 -2 6 -13 5 -11 0 -14 -3 -6 -6z"/>
<path d="M1798 263 c7 -3 16 -2 19 1 4 3 -2 6 -13 5 -11 0 -14 -3 -6 -6z"/>
<path d="M2110 267 c0 -2 15 -16 33 -33 l32 -29 -29 33 c-28 30 -36 37 -36 29z"/>
<path d="M3560 260 c-8 -5 -10 -10 -5 -10 6 0 17 5 25 10 8 5 11 10 5 10 -5 0
-17 -5 -25 -10z"/>
<path d="M1748 253 c7 -3 16 -2 19 1 4 3 -2 6 -13 5 -11 0 -14 -3 -6 -6z"/>
<path d="M2708 253 c7 -3 16 -2 19 1 4 3 -2 6 -13 5 -11 0 -14 -3 -6 -6z"/>
<path d="M3013 253 c53 -2 141 -2 195 0 53 1 9 3 -98 3 -107 0 -151 -2 -97 -3z"/>
<path d="M1708 243 c7 -3 16 -2 19 1 4 3 -2 6 -13 5 -11 0 -14 -3 -6 -6z"/>
<path d="M1658 233 c7 -3 16 -2 19 1 4 3 -2 6 -13 5 -11 0 -14 -3 -6 -6z"/>
<path d="M1608 223 c7 -3 16 -2 19 1 4 3 -2 6 -13 5 -11 0 -14 -3 -6 -6z"/>
<path d="M1558 213 c7 -3 16 -2 19 1 4 3 -2 6 -13 5 -11 0 -14 -3 -6 -6z"/>
<path d="M2788 213 c7 -3 16 -2 19 1 4 3 -2 6 -13 5 -11 0 -14 -3 -6 -6z"/>
<path d="M2853 213 c9 -2 23 -2 30 0 6 3 -1 5 -18 5 -16 0 -22 -2 -12 -5z"/>
<path d="M1518 203 c7 -3 16 -2 19 1 4 3 -2 6 -13 5 -11 0 -14 -3 -6 -6z"/>
<path d="M3048 203 c12 -2 30 -2 40 0 9 3 -1 5 -23 4 -22 0 -30 -2 -17 -4z"/>
<path d="M3123 203 c9 -2 25 -2 35 0 9 3 1 5 -18 5 -19 0 -27 -2 -17 -5z"/>
<path d="M1468 193 c7 -3 16 -2 19 1 4 3 -2 6 -13 5 -11 0 -14 -3 -6 -6z"/>
<path d="M3400 190 c-8 -5 -10 -10 -5 -10 6 0 17 5 25 10 8 5 11 10 5 10 -5 0
-17 -5 -25 -10z"/>
<path d="M1418 183 c7 -3 16 -2 19 1 4 3 -2 6 -13 5 -11 0 -14 -3 -6 -6z"/>
<path d="M1368 173 c7 -3 16 -2 19 1 4 3 -2 6 -13 5 -11 0 -14 -3 -6 -6z"/>
<path d="M2708 173 c7 -3 16 -2 19 1 4 3 -2 6 -13 5 -11 0 -14 -3 -6 -6z"/>
<path d="M2748 173 c6 -2 18 -2 25 0 6 3 1 5 -13 5 -14 0 -19 -2 -12 -5z"/>
<path d="M1318 163 c7 -3 16 -2 19 1 4 3 -2 6 -13 5 -11 0 -14 -3 -6 -6z"/>
<path d="M2893 163 c15 -2 37 -2 50 0 12 2 0 4 -28 4 -27 0 -38 -2 -22 -4z"/>
<path d="M1235 151 c-27 -7 -24 -8 26 -15 31 -5 65 -6 75 -3 11 3 -3 6 -31 7
-38 1 -45 4 -30 10 24 10 3 11 -40 1z"/>
<path d="M3058 153 c7 -3 16 -2 19 1 4 3 -2 6 -13 5 -11 0 -14 -3 -6 -6z"/>
<path d="M3098 153 c7 -3 16 -2 19 1 4 3 -2 6 -13 5 -11 0 -14 -3 -6 -6z"/>
<path d="M1420 130 c-33 -7 -32 -8 13 -7 26 0 50 4 53 9 6 9 -16 9 -66 -2z"/>
<path d="M2623 133 c9 -2 25 -2 35 0 9 3 1 5 -18 5 -19 0 -27 -2 -17 -5z"/>
<path d="M2758 123 c12 -2 30 -2 40 0 9 3 -1 5 -23 4 -22 0 -30 -2 -17 -4z"/>
<path d="M2878 113 c7 -3 16 -2 19 1 4 3 -2 6 -13 5 -11 0 -14 -3 -6 -6z"/>
<path d="M2548 93 c12 -2 30 -2 40 0 9 3 -1 5 -23 4 -22 0 -30 -2 -17 -4z"/>
<path d="M2115 79 c-16 -6 -14 -8 13 -8 33 -1 41 4 20 12 -7 2 -22 1 -33 -4z"/>
<path d="M2678 83 c12 -2 30 -2 40 0 9 3 -1 5 -23 4 -22 0 -30 -2 -17 -4z"/>
<path d="M2233 63 c9 -2 23 -2 30 0 6 3 -1 5 -18 5 -16 0 -22 -2 -12 -5z"/>
</g>
</svg>
