<?xml version="1.0" standalone="no"?>
<!DOCTYPE svg PUBLIC "-//W3C//DTD SVG 20010904//EN"
 "http://www.w3.org/TR/2001/REC-SVG-20010904/DTD/svg10.dtd">
<svg version="1.0" xmlns="http://www.w3.org/2000/svg"
 width="454.000000pt" height="386.000000pt" viewBox="0 0 454.000000 386.000000"
 preserveAspectRatio="xMidYMid meet">

<g transform="translate(0.000000,386.000000) scale(0.100000,-0.100000)"
fill="#000000" stroke="none">
<path d="M610 2920 l0 -271 -33 -29 c-33 -29 -57 -84 -57 -132 0 -27 -26 -79
-84 -173 -33 -54 -37 -65 -32 -106 7 -52 -8 -68 -41 -44 -10 8 -35 15 -56 15
-78 0 -117 -91 -62 -145 35 -36 90 -34 143 5 33 24 42 27 42 14 0 -19 -59 -78
-118 -116 -23 -15 -54 -46 -69 -69 -24 -37 -29 -55 -32 -128 -3 -80 -5 -88
-37 -127 -54 -65 -45 -138 25 -211 l21 -22 -81 -218 c-135 -363 -154 -475
-101 -578 44 -86 90 -114 293 -176 89 -27 164 -51 166 -52 3 -4 -42 -278 -54
-325 l-5 -22 536 0 c295 0 536 1 536 3 0 1 -27 83 -60 182 -33 99 -60 188 -60
198 0 10 30 88 66 173 l66 154 1309 0 1309 0 0 43 0 44 -96 6 c-52 4 -99 9
-105 12 -5 4 -9 459 -9 1186 l0 1179 -1660 0 -1660 0 0 -270z m1755 -55 c48
-9 95 -20 104 -26 14 -8 13 -9 -4 -5 -11 2 -33 7 -48 10 -142 32 -272 24 -369
-21 -121 -57 -184 -153 -176 -269 8 -124 87 -189 268 -220 273 -46 414 18 445
203 8 48 -14 138 -43 172 l-17 22 -12 -30 c-10 -27 -9 -31 5 -31 15 0 15 -2 2
-10 -8 -5 -23 -10 -33 -10 -16 0 -16 3 5 39 25 44 19 62 -15 43 -20 -12 -20
-11 2 8 23 20 23 21 5 36 -10 8 -36 23 -56 34 -21 11 -38 23 -38 26 0 15 107
-56 140 -94 89 -101 91 -248 6 -349 -70 -81 -177 -105 -355 -79 -182 27 -260
66 -301 151 -65 133 8 301 159 369 107 48 186 55 326 31z m1021 -121 c4 -23
14 -39 28 -44 21 -9 21 -9 -1 -9 -13 -1 -23 4 -23 11 0 6 -7 4 -18 -5 -27 -24
-51 -21 -58 8 -8 31 19 75 46 75 14 0 21 -9 26 -36z m-1371 -84 c-3 -5 -12
-10 -20 -10 -13 0 -25 -21 -25 -45 0 -8 12 -16 28 -18 26 -4 26 -4 5 -12 -18
-6 -23 -15 -23 -41 0 -28 4 -33 28 -37 20 -4 18 -4 -8 -3 l-35 1 -3 75 c-2 62
0 77 14 87 21 15 48 17 39 3z m1615 -294 l0 -275 -126 -76 -126 -75 -276 2
-277 3 0 275 0 275 125 72 125 73 277 0 278 0 0 -274z m-1487 237 c-13 -2 -33
-2 -45 0 -13 2 -3 4 22 4 25 0 35 -2 23 -4z m176 -10 c8 -15 11 -15 26 -3 15
12 19 12 31 -5 8 -10 14 -33 13 -49 -1 -32 -3 -29 -13 17 -9 40 -34 34 -41
-10 -10 -60 -11 -61 -19 -5 -8 63 -32 72 -41 15 -10 -60 -13 -62 -14 -6 -1 50
5 60 36 62 7 1 16 -7 22 -16z m141 4 c-44 -22 -35 -78 13 -80 27 -2 27 -17 0
-17 -26 0 -53 31 -53 61 0 28 21 48 50 49 8 0 4 -6 -10 -13z m-307 -54 c-13
-2 -35 -2 -50 0 -16 2 -5 4 22 4 28 0 40 -2 28 -4z m-1155 -29 c51 -5 53 -7
78 -55 15 -30 38 -58 58 -70 32 -18 33 -23 40 -96 10 -120 7 -282 -6 -324 -13
-46 -68 -113 -109 -135 l-29 -15 0 -120 c0 -100 -3 -126 -20 -159 -20 -40 -69
-83 -106 -94 -19 -6 -20 -2 -20 56 0 80 -14 106 -104 194 -116 112 -121 135
-59 251 47 89 46 100 -12 187 -52 78 -51 104 6 165 25 27 51 48 58 48 7 -1 36
2 65 7 65 10 59 30 -8 24 l-47 -5 15 30 c9 17 17 52 20 79 l4 47 62 -5 c33 -3
85 -7 114 -10z m582 -504 l0 -430 25 0 25 0 0 130 0 130 36 0 35 0 -7 -130 -7
-130 32 0 c18 0 31 5 32 13 0 9 2 9 6 0 3 -8 22 -13 46 -13 31 0 38 3 27 10
-21 14 5 13 31 -1 16 -8 18 -13 8 -25 -6 -8 -17 -14 -23 -14 -6 0 -4 5 4 10
11 7 0 10 -37 10 -36 0 -53 -4 -54 -12 0 -7 -2 -8 -5 -3 -2 6 -73 9 -194 7
-133 -3 -190 -1 -190 7 0 6 7 11 15 11 13 0 15 35 15 255 l0 255 30 0 30 0 0
-255 0 -255 30 0 30 0 0 430 0 430 30 0 30 0 0 -430z m2127 358 c21 3 43 -22
43 -47 0 -15 -37 -51 -52 -51 -7 0 -2 7 10 16 16 11 22 24 20 40 -4 36 -22 34
-33 -3 -15 -54 -25 -38 -24 40 1 52 3 62 8 37 5 -29 10 -34 28 -32z m-1463
-250 c-4 -13 -13 -44 -20 -70 -12 -47 -12 -48 12 -48 25 0 42 -35 30 -65 -3
-9 -1 -24 6 -34 7 -11 8 -29 3 -47 -9 -33 -12 -50 -21 -112 -5 -34 -14 -49
-48 -76 -22 -18 -56 -41 -73 -52 -33 -18 -33 -18 -131 14 l-99 32 30 111 31
111 90 69 c55 41 93 63 97 57 4 -6 14 16 23 48 9 33 19 65 21 72 2 6 16 12 30
12 23 0 25 -3 19 -22z m271 -250 c-8 -130 -42 -228 -107 -310 l-30 -38 89 1
c66 0 82 3 64 10 -13 5 -22 11 -19 14 6 6 108 -27 108 -36 0 -7 -80 -39 -95
-38 -6 0 7 9 29 19 26 12 34 20 25 26 -7 4 -14 3 -17 -4 -2 -8 -35 -12 -101
-12 l-98 0 -7 -52 c-3 -29 -6 -146 -6 -260 0 -114 -4 -209 -9 -212 -6 -4 -7
98 -5 251 l5 258 -40 -43 c-64 -69 -83 -133 -90 -297 -6 -134 -6 -137 -13 -69
-16 146 22 297 93 378 l41 46 -66 0 c-37 0 -66 4 -66 10 0 6 29 10 68 10 l69
0 6 137 c4 75 7 179 6 232 0 92 -1 94 -14 61 -7 -19 -14 -29 -14 -21 -1 21 21
91 29 91 8 0 40 -79 40 -95 -1 -6 -7 1 -15 15 -13 22 -14 1 -15 -194 l0 -219
24 22 c34 32 83 127 101 196 10 39 15 110 16 205 2 134 2 140 11 75 5 -38 6
-109 3 -157z m-1167 -30 l-2 -73 -3 63 c-3 45 -8 62 -18 62 -8 0 -17 5 -20 10
-4 6 5 10 19 10 26 0 26 -1 24 -72z m2256 -84 c18 -7 21 -39 5 -49 -7 -5 -3
-14 10 -26 27 -25 26 -35 -3 -54 -19 -13 -29 -14 -45 -5 -22 11 -28 44 -11 55
7 4 5 14 -5 28 -13 19 -13 23 2 39 18 20 23 21 47 12z m-96 -27 c6 -7 7 -18 2
-26 -5 -9 -3 -22 3 -33 9 -13 9 -23 1 -36 -12 -19 -64 -30 -64 -13 0 6 7 8 15
5 8 -4 22 -1 30 6 16 13 9 40 -11 40 -19 0 -18 16 1 24 21 8 19 36 -3 36 -10
0 -24 -6 -32 -12 -12 -11 -12 -10 -1 5 16 20 44 22 59 4z m210 -92 l0 -30 -11
28 c-8 21 -17 27 -36 25 -31 -4 -38 19 -16 47 15 19 15 19 9 -7 -5 -24 -3 -28
15 -28 17 0 21 6 22 38 l1 37 9 -40 c4 -22 8 -53 7 -70z m-1117 11 c7 4 10 2
7 -7 -3 -8 1 -22 10 -31 9 -11 10 -18 4 -18 -6 0 -14 5 -17 11 -5 7 -16 2 -33
-13 l-26 -23 18 29 c13 20 15 31 7 39 -16 16 -13 31 4 17 8 -6 19 -8 26 -4z
m572 -49 l-21 -34 27 -10 26 -11 -32 -1 c-43 -1 -47 9 -17 53 28 41 25 58 -6
38 -24 -15 -26 -9 -4 13 15 15 19 15 32 1 13 -13 13 -18 -5 -49z m-858 -6 c7
-23 -2 -48 -22 -55 -21 -8 -33 2 -33 28 0 41 43 63 55 27z m518 -109 c-14 -40
-28 -70 -31 -68 -2 3 1 19 7 36 10 29 8 34 -19 57 -17 14 -30 30 -30 36 0 6
13 -2 30 -18 16 -16 31 -27 33 -24 2 2 9 17 15 33 24 55 21 20 -5 -52z m572
68 c4 -6 -6 -10 -22 -10 -22 0 -25 2 -13 10 19 12 27 12 35 0z m215 4 c0 -3
-13 -10 -30 -15 -36 -13 -42 -46 -7 -45 18 1 22 -4 22 -29 0 -26 -4 -30 -30
-32 -28 -2 -28 -1 -5 5 33 10 35 48 3 44 -19 -3 -23 1 -23 27 0 23 6 31 28 39
33 12 42 14 42 6z m94 -26 c9 -17 16 -36 16 -41 0 -17 -32 -47 -49 -47 -12 1
-11 3 4 12 40 22 41 58 1 58 -19 1 -19 2 -3 11 21 12 23 33 1 25 -8 -3 -12 -2
-9 4 11 18 23 11 39 -22z m-1944 -17 c0 -31 -16 -49 -30 -35 -13 13 0 64 16
64 9 0 14 -11 14 -29z m1735 -46 c5 -40 4 -57 -3 -50 -5 6 -12 37 -15 69 -8
77 9 60 18 -19z m-532 48 c-13 -2 -33 -2 -45 0 -13 2 -3 4 22 4 25 0 35 -2 23
-4z m136 -27 c-10 -22 -9 -29 6 -46 10 -11 16 -22 13 -25 -3 -3 -13 4 -23 15
-18 20 -18 20 -41 -17 -29 -47 -31 -36 -4 16 17 34 18 41 5 51 -8 7 -15 17
-15 23 0 5 9 2 19 -7 19 -17 20 -17 31 4 16 30 23 19 9 -14z m-114 -36 c4 -6
-13 -10 -45 -10 -32 0 -49 4 -45 10 3 6 24 10 45 10 21 0 42 -4 45 -10z m785
-60 c-32 -12 -321 -52 -327 -46 -6 6 37 14 191 36 140 21 174 23 136 10z
m-620 -50 c-30 -11 -331 -42 -338 -35 -2 2 6 6 19 9 28 7 283 34 319 34 l25 0
-25 -8z m-55 -56 c-105 -15 -245 -26 -228 -18 19 9 213 32 268 32 40 -1 32 -3
-40 -14z m-1846 -274 l260 -125 -6 -40 c-3 -22 -8 -43 -12 -46 -3 -4 -33 6
-66 22 -33 15 -56 28 -51 29 5 0 -1 11 -14 25 -18 19 -34 25 -64 25 -30 0 -92
23 -233 87 -106 49 -193 93 -193 98 0 6 4 16 9 23 7 12 13 11 38 -2 29 -15 31
-14 42 10 6 14 16 24 21 22 5 -2 126 -59 269 -128z m-729 -298 c0 -22 -2 -21
-80 18 -44 22 -80 44 -80 49 0 4 19 48 41 97 23 49 46 100 52 114 9 22 14 5
38 -115 15 -77 28 -150 29 -163z m537 152 c156 -70 159 -71 152 -79 -3 -2 -68
25 -144 60 -76 36 -142 65 -146 65 -4 0 -29 -56 -57 -124 l-50 -124 184 -78
c101 -42 186 -75 188 -73 12 12 96 216 96 232 0 16 18 21 23 7 4 -11 -108
-260 -116 -260 -13 0 -370 151 -381 161 -6 5 12 62 45 144 30 74 55 135 56
135 2 0 69 -30 150 -66z m1183 -34 c0 -19 -7 -20 -169 -20 -163 0 -192 5 -176
30 4 6 73 10 176 10 162 0 169 -1 169 -20z m-1143 -66 c3 -8 -2 -23 -11 -32
-14 -15 -18 -15 -31 -1 -9 9 -13 23 -9 32 8 21 43 22 51 1z m-64 -54 c21 -35
21 -35 77 -15 23 8 46 15 50 15 9 0 45 -118 38 -125 -2 -3 -13 20 -23 50 -11
30 -22 55 -26 55 -3 0 -26 -7 -49 -15 -56 -20 -54 -20 -75 19 l-19 34 -50 -20
c-91 -36 -131 -49 -121 -39 13 13 145 69 165 70 9 1 24 -12 33 -29z m342 -203
c-36 -86 -65 -159 -65 -161 0 -3 10 -6 23 -8 17 -2 23 -11 25 -36 4 -37 -22
-72 -88 -117 -19 -14 -45 -32 -58 -41 -21 -16 -28 -15 -125 16 -88 27 -235 95
-260 119 -10 10 61 191 75 191 5 0 22 -7 39 -15 20 -11 35 -13 46 -7 14 8 13
11 -6 17 -37 11 -152 67 -148 71 2 2 43 -12 91 -32 49 -19 98 -34 110 -32 13
2 -37 27 -126 62 -82 33 -148 63 -148 68 0 4 10 4 23 -1 12 -5 86 -34 164 -65
107 -41 162 -57 217 -62 84 -8 99 -14 90 -37 -6 -17 -15 -20 -87 -32 -23 -4
-37 -11 -35 -18 6 -19 89 -57 123 -57 29 0 31 3 104 177 41 98 76 173 78 167
2 -6 -26 -81 -62 -167z"/>
<path d="M3342 2758 c-14 -14 -16 -68 -2 -68 13 0 30 34 30 59 0 24 -10 27
-28 9z"/>
<path d="M2965 2564 l-110 -64 262 0 261 0 104 61 c57 33 105 63 107 65 2 2
-112 4 -255 3 l-259 -1 -110 -64z m122 34 c-3 -8 -6 -5 -6 6 -1 11 2 17 5 13
3 -3 4 -12 1 -19z m0 -60 c-3 -8 -6 -5 -6 6 -1 11 2 17 5 13 3 -3 4 -12 1 -19z"/>
<path d="M3498 2557 l-107 -62 -1 -268 0 -269 38 23 c20 13 72 45 115 73 l77
50 0 258 c0 142 -3 258 -7 257 -5 0 -56 -28 -115 -62z m-51 -463 c-3 -3 -12
-4 -19 -1 -8 3 -5 6 6 6 11 1 17 -2 13 -5z m60 0 c-3 -3 -12 -4 -19 -1 -8 3
-5 6 6 6 11 1 17 -2 13 -5z m60 0 c-3 -3 -12 -4 -19 -1 -8 3 -5 6 6 6 11 1 17
-2 13 -5z"/>
<path d="M2840 2230 c0 -176 3 -260 11 -260 5 0 7 -4 4 -10 -4 -7 83 -10 254
-10 l260 0 1 270 0 270 -140 0 c-102 0 -140 -3 -140 -12 0 -9 -3 -9 -12 0 -8
8 -50 12 -125 12 l-113 0 0 -260z m250 194 c0 -8 -5 -12 -10 -9 -6 4 -8 11 -5
16 9 14 15 11 15 -7z m0 -60 c0 -8 -5 -12 -10 -9 -6 4 -8 11 -5 16 9 14 15 11
15 -7z m-4 -71 c-10 -10 -19 5 -10 18 6 11 8 11 12 0 2 -7 1 -15 -2 -18z m4
-48 c0 -8 -4 -15 -10 -15 -5 0 -10 7 -10 15 0 8 5 15 10 15 6 0 10 -7 10 -15z
m-5 -54 c3 -5 1 -12 -5 -16 -5 -3 -10 1 -10 9 0 18 6 21 15 7z m0 -60 c3 -5 1
-12 -5 -16 -5 -3 -10 1 -10 9 0 18 6 21 15 7z m62 -37 c-3 -3 -12 -4 -19 -1
-8 3 -5 6 6 6 11 1 17 -2 13 -5z m60 0 c-3 -3 -12 -4 -19 -1 -8 3 -5 6 6 6 11
1 17 -2 13 -5z m60 0 c-3 -3 -12 -4 -19 -1 -8 3 -5 6 6 6 11 1 17 -2 13 -5z
m60 0 c-3 -3 -12 -4 -19 -1 -8 3 -5 6 6 6 11 1 17 -2 13 -5z m-262 -14 c-3 -5
-11 -10 -16 -10 -6 0 -7 5 -4 10 3 6 11 10 16 10 6 0 7 -4 4 -10z m-45 -24 c0
-2 -7 -7 -16 -10 -8 -3 -12 -2 -9 4 6 10 25 14 25 6z m-60 -30 c0 -3 -4 -8
-10 -11 -5 -3 -10 -1 -10 4 0 6 5 11 10 11 6 0 10 -2 10 -4z m-55 -36 c-3 -5
-11 -10 -16 -10 -6 0 -7 5 -4 10 3 6 11 10 16 10 6 0 7 -4 4 -10z"/>
<path d="M1047 2384 c-16 -16 -5 -24 34 -24 28 0 39 4 37 13 -5 13 -60 22 -71
11z"/>
<path d="M960 2326 c0 -4 16 -41 35 -83 44 -96 46 -105 15 -114 l-25 -7 28 -1
c43 -2 43 22 2 112 -35 77 -55 111 -55 93z"/>
<path d="M1052 2317 c-8 -9 -1 -11 34 -8 24 1 44 7 44 12 0 14 -66 11 -78 -4z"/>
<path d="M804 2304 c-17 -14 -17 -15 -1 -10 10 3 32 6 48 6 18 0 28 4 24 10
-9 15 -49 12 -71 -6z"/>
<path d="M1064 2285 c-7 -18 3 -35 21 -35 15 0 24 19 18 38 -6 17 -32 15 -39
-3z"/>
<path d="M821 2276 c-16 -19 -6 -36 20 -36 15 0 20 6 17 22 -4 27 -21 33 -37
14z"/>
<path d="M910 2084 c0 -29 31 -54 66 -54 l29 1 -31 13 c-17 8 -39 24 -48 37
-15 23 -16 23 -16 3z"/>
<path d="M1530 2005 c0 -418 0 -425 20 -425 20 0 20 7 20 425 0 418 0 425 -20
425 -20 0 -20 -7 -20 -425z"/>
<path d="M1420 1876 c0 -112 -3 -224 -6 -250 -6 -42 -5 -46 15 -46 21 0 21 1
21 250 0 216 -2 250 -15 250 -13 0 -15 -29 -15 -204z"/>
<path d="M1650 1705 c0 -104 2 -125 15 -125 13 0 15 21 15 125 0 104 -2 125
-15 125 -13 0 -15 -21 -15 -125z"/>
<path d="M3563 1734 c-3 -8 -1 -20 6 -27 14 -14 47 15 37 32 -10 16 -36 13
-43 -5z"/>
<path d="M3564 1665 c-8 -21 4 -35 32 -35 17 0 24 6 24 19 0 29 -46 43 -56 16z"/>
<path d="M2277 1593 c-4 -3 -7 -15 -7 -25 0 -22 26 -24 34 -2 10 25 -10 45
-27 27z"/>
<path d="M1745 1490 c3 -5 8 -10 11 -10 2 0 4 5 4 10 0 6 -5 10 -11 10 -5 0
-7 -4 -4 -10z"/>
<path d="M1070 750 c0 -5 4 -10 9 -10 6 0 13 5 16 10 3 6 -1 10 -9 10 -9 0
-16 -4 -16 -10z"/>
</g>
</svg>
